<svg width="812" height="82" viewBox="0 0 812 82" fill="none" xmlns="http://www.w3.org/2000/svg">
<rect x="553.477" y="7.56128" width="216.249" height="69.5626" rx="12" fill="#26906E"/>
<path fill-rule="evenodd" clip-rule="evenodd" d="M604.059 69.1111H572.404C567.981 69.1111 564.419 65.5493 564.419 61.1257V23.2093C564.419 18.7857 567.981 15.2239 572.404 15.2239H592.626C594.752 15.2239 596.82 16.0856 598.314 17.5793L609.689 29.0117C611.183 30.5053 612.044 32.5161 612.044 34.6417V61.1257C612.044 65.5493 608.482 69.1111 604.059 69.1111ZM572.404 19.0155C570.106 19.0155 568.211 20.9113 568.211 23.2093V61.1257C568.211 63.4811 570.106 65.3195 572.404 65.3195H604.059C606.357 65.3195 608.253 63.4811 608.253 61.1257V34.6417C608.253 33.5501 607.793 32.4586 607.046 31.6543L595.614 20.2794C594.81 19.4751 593.775 19.0155 592.626 19.0155H572.404Z" fill="white"/>
<path fill-rule="evenodd" clip-rule="evenodd" d="M608.482 34.182H601.416C596.993 34.182 593.431 30.6202 593.431 26.1966V17.1196H597.222V26.1966C597.222 28.4945 599.118 30.3904 601.416 30.3904H608.482V34.182Z" fill="white"/>
<path fill-rule="evenodd" clip-rule="evenodd" d="M597.969 53.0827C597.51 53.0827 597.165 52.738 597.165 52.2784C597.165 52.221 597.222 45.6718 593.718 42.2248C592.339 40.8461 590.443 40.0418 588.49 40.0418C588.375 40.0418 588.26 40.0418 588.203 40.0992C588.088 40.0418 588.031 40.0418 587.973 40.0418C585.962 40.0418 584.009 40.9035 582.573 42.3397C579.183 45.7867 579.298 52.221 579.298 52.2784C579.298 52.2784 579.298 52.2784 579.298 52.3359C579.298 52.738 578.954 53.0827 578.551 53.0827C578.149 53.0827 577.805 52.738 577.805 52.3359C577.747 52.0486 577.632 45.2122 581.481 41.2482C583.205 39.5247 585.503 38.5481 587.973 38.5481C588.031 38.5481 588.088 38.5481 588.145 38.5481H588.26C588.318 38.5481 588.433 38.5481 588.548 38.5481C590.903 38.5481 593.144 39.4673 594.81 41.1333C598.716 45.0973 598.716 52.0486 598.716 52.3359C598.716 52.738 598.371 53.0827 597.969 53.0827Z" fill="white"/>
<path d="M590.575 36.9397H585.904V41.6106H590.575V36.9397Z" fill="white"/>
<path d="M580.866 49.5784H576.195V54.2493H580.866V49.5784Z" fill="white"/>
<path d="M600.284 49.5784H595.613V54.2493H600.284V49.5784Z" fill="white"/>
<path fill-rule="evenodd" clip-rule="evenodd" d="M600.267 40.0418H576.196C575.794 40.0418 575.449 39.6971 575.449 39.2949C575.449 38.8928 575.794 38.5481 576.196 38.5481H600.267C600.727 38.5481 601.072 38.8928 601.072 39.2949C601.072 39.6971 600.727 40.0418 600.267 40.0418Z" fill="white"/>
<path d="M628.187 53.8871C626.578 53.8871 625.142 53.6573 623.935 53.0828C622.671 52.5083 621.695 51.7615 620.948 50.7848C620.259 49.8082 619.856 48.7167 619.856 47.3953H623.993C624.05 48.3145 624.452 49.0614 625.257 49.6358C626.061 50.1529 627.038 50.4401 628.187 50.4401C629.393 50.4401 630.37 50.1529 631.174 49.5209C631.921 48.889 632.323 48.0847 632.323 47.0506C632.323 46.0166 631.921 45.2123 631.116 44.5229C630.312 43.8909 629.163 43.5462 627.727 43.5462H625.716V40.3865H627.727C628.933 40.3865 629.91 40.0993 630.599 39.4674C631.346 38.8929 631.748 38.0886 631.748 37.1119C631.748 36.1353 631.404 35.3885 630.772 34.7565C630.14 34.182 629.278 33.8948 628.187 33.8948C627.152 33.8948 626.233 34.182 625.486 34.7565C624.74 35.2736 624.337 36.0204 624.28 36.997H620.316C620.316 35.7332 620.718 34.5842 621.408 33.665C622.097 32.6884 623.074 31.9415 624.223 31.367C625.429 30.85 626.75 30.5627 628.244 30.5627C629.738 30.5627 631.059 30.85 632.208 31.4245C633.3 31.999 634.161 32.7458 634.793 33.665C635.425 34.6416 635.712 35.6757 635.712 36.8247C635.712 38.146 635.368 39.1801 634.621 40.0418C633.817 40.961 632.84 41.4781 631.634 41.7653V41.9377C633.185 42.1675 634.449 42.742 635.31 43.7186C636.115 44.6952 636.574 45.8442 636.574 47.2804C636.574 48.5443 636.229 49.6933 635.483 50.6699C634.736 51.704 633.759 52.4508 632.495 53.0253C631.231 53.5998 629.795 53.8871 628.187 53.8871Z" fill="white"/>
<path d="M644.446 50.4976L644.331 51.704C644.216 52.6232 644.043 53.5998 643.756 54.5764C643.526 55.4956 643.239 56.4148 642.952 57.2191C642.665 58.0234 642.435 58.6553 642.262 59.1149H639.505C639.62 58.7128 639.792 58.0808 639.964 57.2766C640.137 56.5297 640.309 55.6105 640.482 54.6913C640.654 53.7147 640.769 52.7381 640.826 51.704L640.884 50.4976H644.446Z" fill="white"/>
<path d="M649.041 53.5997L658.693 34.4691V34.2968H647.49V30.8499H662.944V34.4117L653.293 53.5997H649.041Z" fill="white"/>
<path d="M674.204 53.8871C672.538 53.8871 671.044 53.5998 669.78 53.0828C668.516 52.5083 667.54 51.7615 666.793 50.7848C666.103 49.8082 665.701 48.7167 665.701 47.5102C665.701 46.5336 665.931 45.6719 666.333 44.8676C666.793 44.0633 667.31 43.4313 668.057 42.8569C668.746 42.3398 669.55 41.9951 670.469 41.8228V41.7079C669.32 41.4206 668.344 40.8461 667.654 39.9269C666.908 38.9503 666.563 37.8588 666.563 36.6523C666.563 35.5034 666.908 34.4693 667.54 33.5501C668.229 32.6309 669.091 31.8841 670.24 31.367C671.389 30.85 672.71 30.5627 674.204 30.5627C675.64 30.5627 676.904 30.85 678.053 31.367C679.202 31.8841 680.121 32.6309 680.81 33.5501C681.442 34.4693 681.787 35.5034 681.787 36.6523C681.787 37.8588 681.385 38.9503 680.695 39.9269C679.949 40.8461 679.029 41.4206 677.88 41.7079V41.8228C678.742 41.9951 679.546 42.3398 680.293 42.8569C680.983 43.4313 681.557 44.0633 681.959 44.8676C682.419 45.6719 682.591 46.5336 682.591 47.5102C682.591 48.7167 682.247 49.8082 681.557 50.7848C680.81 51.7615 679.834 52.5083 678.512 53.0828C677.248 53.5998 675.812 53.8871 674.204 53.8871ZM674.204 50.7274C675.468 50.7274 676.444 50.3827 677.248 49.7507C677.995 49.1188 678.397 48.2571 678.397 47.223C678.397 46.1314 677.995 45.2697 677.191 44.5229C676.387 43.8335 675.41 43.4888 674.204 43.4888C672.94 43.4888 671.963 43.8335 671.159 44.5229C670.355 45.2123 669.952 46.1314 669.952 47.223C669.952 48.2571 670.355 49.1188 671.101 49.7507C671.848 50.3827 672.882 50.7274 674.204 50.7274ZM674.204 40.3865C675.238 40.3865 676.042 40.0418 676.731 39.4674C677.421 38.8354 677.765 38.0311 677.765 37.0545C677.765 36.0779 677.421 35.2736 676.789 34.6991C676.099 34.0671 675.238 33.7799 674.204 33.7799C673.112 33.7799 672.25 34.0671 671.561 34.6991C670.929 35.2736 670.584 36.0779 670.584 37.0545C670.584 38.0311 670.929 38.8354 671.561 39.4674C672.25 40.0418 673.112 40.3865 674.204 40.3865Z" fill="white"/>
<path d="M694.254 53.5997V30.8499H698.39V41.3056H698.677L707.525 30.8499H712.523L703.733 41.0758L712.638 53.5997H707.697L700.918 43.8333L698.39 46.8207V53.5997H694.254Z" fill="white"/>
<path d="M715.395 53.5997V30.8499H724.127C726.54 30.8499 728.378 31.4243 729.642 32.5733C730.848 33.6649 731.48 35.0436 731.48 36.7671C731.48 38.1459 731.078 39.2374 730.331 40.0417C729.527 40.7885 728.608 41.363 727.516 41.5928V41.8226C728.321 41.8801 729.067 42.1099 729.814 42.5695C730.561 43.0291 731.193 43.661 731.653 44.4653C732.112 45.2696 732.342 46.2462 732.342 47.3952C732.342 48.6016 732.055 49.6357 731.48 50.5549C730.906 51.5315 730.044 52.2209 728.953 52.7954C727.804 53.3125 726.367 53.5997 724.586 53.5997H715.395ZM719.531 50.1528H723.954C725.448 50.1528 726.54 49.8655 727.172 49.291C727.861 48.7165 728.148 47.9697 728.148 47.0505C728.148 46.0739 727.804 45.2121 727.057 44.5227C726.31 43.8333 725.333 43.4887 724.069 43.4887H719.531V50.1528ZM719.531 40.5588H723.61C724.644 40.5588 725.563 40.2141 726.252 39.6396C726.999 39.0651 727.344 38.3182 727.344 37.2842C727.344 36.4224 727.057 35.6756 726.425 35.1011C725.793 34.5266 724.874 34.2394 723.667 34.2394H719.531V40.5588Z" fill="white"/>
<rect x="276.738" y="7.56128" width="216.249" height="69.5626" rx="12" fill="#29DBA2"/>
<path fill-rule="evenodd" clip-rule="evenodd" d="M331.003 34.182H323.937C319.513 34.182 315.951 30.6202 315.951 26.1966V17.1196H319.743V26.1966C319.743 28.4945 321.639 30.3904 323.937 30.3904H331.003V34.182Z" fill="black"/>
<path fill-rule="evenodd" clip-rule="evenodd" d="M326.579 69.1111H294.925C290.501 69.1111 286.939 65.5493 286.939 61.1257V23.2093C286.939 18.7857 290.501 15.2239 294.925 15.2239H315.147C317.273 15.2239 319.341 16.0856 320.834 17.5793L332.209 29.0117C333.703 30.5053 334.565 32.5161 334.565 34.6417V61.1257C334.565 65.5493 331.003 69.1111 326.579 69.1111ZM294.925 19.0155C292.627 19.0155 290.731 20.9113 290.731 23.2093V61.1257C290.731 63.4811 292.627 65.3195 294.925 65.3195H326.579C328.877 65.3195 330.773 63.4811 330.773 61.1257V34.6417C330.773 33.5501 330.314 32.4586 329.567 31.6543L318.134 20.2794C317.33 19.4751 316.296 19.0155 315.147 19.0155H294.925Z" fill="black"/>
<path fill-rule="evenodd" clip-rule="evenodd" d="M301.819 50.7273L295.902 47.2229C295.04 46.7058 295.04 45.3845 295.902 44.9249L301.819 41.478C303.773 40.2715 304.979 42.7993 303.658 43.6036L299.349 46.0739L303.6 48.6017C304.749 49.2336 304.232 52.1061 301.819 50.7273Z" fill="black"/>
<path fill-rule="evenodd" clip-rule="evenodd" d="M306.013 51.7039L313.424 36.5374C314.171 34.9288 316.526 36.1352 315.722 37.6864L308.311 52.8529C307.564 54.4615 305.209 53.1976 306.013 51.7039Z" fill="black"/>
<path fill-rule="evenodd" clip-rule="evenodd" d="M318.02 48.7167L322.328 46.189L318.077 43.6612C316.871 43.0293 317.503 40.2143 319.858 41.593L325.775 45.04C326.637 45.557 326.637 46.8784 325.775 47.3954L319.858 50.7849C317.675 51.9913 316.756 49.4636 318.02 48.7167Z" fill="black"/>
<path d="M352.777 30.8499V53.5997H348.64V34.8713H348.526L343.24 38.2608V34.5266L348.87 30.8499H352.777Z" fill="black"/>
<path d="M366.45 30.5627C367.541 30.5627 368.575 30.7351 369.609 31.1372C370.643 31.4819 371.563 32.1139 372.424 32.9756C373.229 33.7799 373.918 34.9289 374.378 36.3077C374.895 37.7439 375.124 39.4674 375.124 41.5355C375.124 44.1207 374.78 46.3612 374.033 48.1996C373.286 50.038 372.309 51.4742 370.931 52.4508C369.609 53.4275 368.058 53.8871 366.22 53.8871C364.784 53.8871 363.52 53.5998 362.428 53.0828C361.279 52.5083 360.417 51.704 359.728 50.7274C359.039 49.7507 358.637 48.6592 358.464 47.3953H362.543C362.715 48.3145 363.175 49.0039 363.807 49.5209C364.439 50.0954 365.243 50.3252 366.22 50.3252C367.771 50.3252 368.977 49.6358 369.839 48.2571C370.701 46.9357 371.103 45.0399 371.16 42.5696H370.988C370.414 43.5462 369.667 44.3505 368.633 44.8676C367.656 45.4421 366.507 45.7293 365.301 45.7293C363.979 45.7293 362.773 45.3846 361.739 44.7527C360.647 44.1207 359.786 43.259 359.211 42.1675C358.579 41.0185 358.234 39.7546 358.234 38.3184C358.234 36.8821 358.579 35.5608 359.268 34.3544C359.958 33.2054 360.934 32.2288 362.141 31.5394C363.347 30.9074 364.784 30.5627 366.45 30.5627ZM366.45 33.8948C365.645 33.8948 364.956 34.0671 364.324 34.4693C363.692 34.8714 363.175 35.3885 362.83 36.0204C362.428 36.7098 362.256 37.4566 362.256 38.2609C362.256 39.0652 362.428 39.812 362.773 40.444C363.175 41.1334 363.635 41.6504 364.267 41.9951C364.898 42.3973 365.588 42.5696 366.392 42.5696C367.196 42.5696 367.943 42.3973 368.575 41.9951C369.207 41.593 369.724 41.0759 370.126 40.3865C370.471 39.7546 370.701 39.0078 370.701 38.2035C370.701 37.4566 370.471 36.7098 370.126 36.0779C369.782 35.3885 369.265 34.8714 368.633 34.4693C368.001 34.0671 367.254 33.8948 366.45 33.8948Z" fill="black"/>
<path d="M382.707 50.4976L382.535 51.704C382.42 52.6232 382.248 53.5998 381.96 54.5764C381.731 55.4956 381.443 56.4148 381.156 57.2191C380.869 58.0234 380.639 58.6553 380.467 59.1149H377.767C377.881 58.7128 377.996 58.0808 378.169 57.2766C378.341 56.5297 378.513 55.6105 378.686 54.6913C378.858 53.7147 378.973 52.7381 379.03 51.704L379.145 50.4976H382.707Z" fill="black"/>
<path d="M386.729 49.3485V46.1313L396.38 30.8499H401.493V46.0164H404.423V49.3485H401.493V53.5997H397.586V49.3485H386.729ZM397.586 46.0164V35.5032H397.414L390.922 45.7866V46.0164H397.586Z" fill="black"/>
<path d="M415.913 53.5997V30.8499H420.049V41.3056H420.337L429.184 30.8499H434.182L425.392 41.0758L434.297 53.5997H429.356L422.577 43.8333L420.049 46.8207V53.5997H415.913Z" fill="black"/>
<path d="M437.054 53.5997V30.8499H445.786C448.199 30.8499 450.095 31.4243 451.301 32.5733C452.508 33.6649 453.139 35.0436 453.139 36.7671C453.139 38.1459 452.737 39.2374 451.99 40.0417C451.186 40.7885 450.267 41.363 449.175 41.5928V41.8226C449.98 41.8801 450.727 42.1099 451.473 42.5695C452.22 43.0291 452.852 43.661 453.312 44.4653C453.771 45.2696 454.001 46.2462 454.001 47.3952C454.001 48.6016 453.714 49.6357 453.139 50.5549C452.565 51.5315 451.761 52.2209 450.612 52.7954C449.463 53.3125 448.026 53.5997 446.246 53.5997H437.054ZM441.19 50.1528H445.614C447.107 50.1528 448.199 49.8655 448.831 49.291C449.52 48.7165 449.807 47.9697 449.807 47.0505C449.807 46.0739 449.463 45.2121 448.716 44.5227C447.969 43.8333 446.992 43.4887 445.729 43.4887H441.19V50.1528ZM441.19 40.5588H445.269C446.303 40.5588 447.222 40.2141 447.912 39.6396C448.658 39.0651 449.003 38.3182 449.003 37.2842C449.003 36.4224 448.716 35.6756 448.084 35.1011C447.452 34.5266 446.533 34.2394 445.326 34.2394H441.19V40.5588Z" fill="black"/>
<rect y="7.56128" width="216.249" height="69.5626" rx="12" fill="#8EE1B0"/>
<path fill-rule="evenodd" clip-rule="evenodd" d="M49.8469 69.1111H18.1925C13.8263 69.1111 10.207 65.5493 10.207 61.1257V23.2093C10.207 18.7857 13.8263 15.2239 18.1925 15.2239H38.4145C38.4145 15.2239 38.4145 15.2239 38.472 15.2239C40.5402 15.2239 42.6083 16.0856 44.102 17.5793L55.4769 29.0117C57.028 30.5053 57.8323 32.5161 57.8323 34.6417V61.1257C57.8323 65.5493 54.2705 69.1111 49.8469 69.1111ZM18.1925 19.0155C15.8945 19.0155 13.9987 20.9113 13.9987 23.2093V61.1257C13.9987 63.4811 15.8945 65.3195 18.1925 65.3195H49.8469C52.2023 65.3195 54.0407 63.4811 54.0407 61.1257V34.6417C54.0407 33.5501 53.5811 32.4586 52.8343 31.6543L41.4019 20.2794C40.5976 19.4751 39.5635 19.0155 38.4145 19.0155H18.1925Z" fill="black"/>
<path fill-rule="evenodd" clip-rule="evenodd" d="M54.2704 34.182H47.2042C42.7806 34.182 39.2762 30.6202 39.2188 26.1966V17.1196H43.0678V26.1966C43.0678 28.4945 44.9062 30.3904 47.2042 30.3904H54.2704V34.182Z" fill="black"/>
<path d="M27.6714 42.6846C29.6068 42.6846 31.1758 41.1156 31.1758 39.1802C31.1758 37.2448 29.6068 35.6758 27.6714 35.6758C25.736 35.6758 24.167 37.2448 24.167 39.1802C24.167 41.1156 25.736 42.6846 27.6714 42.6846Z" fill="black"/>
<path fill-rule="evenodd" clip-rule="evenodd" d="M45.5958 53.8298L42.034 47.6828L38.4721 41.4783C38.2423 41.0187 37.7253 40.7314 37.1508 40.7314C36.6338 40.7314 36.1167 41.0187 35.8295 41.4783L32.2676 47.6828L30.5442 50.6701L28.7632 47.5679C28.476 47.1083 27.9589 46.821 27.4419 46.821C26.8674 46.821 26.3504 47.1083 26.0631 47.5679L24.2822 50.6701L22.5013 53.8298C22.3289 54.0596 22.2715 54.2894 22.2715 54.5767C22.2715 55.4384 22.9609 56.1278 23.8226 56.1278H44.2745C45.1362 56.1278 45.8256 55.4384 45.8256 54.5767C45.8256 54.2894 45.7107 54.0596 45.5958 53.8298Z" fill="black"/>
<path d="M68.9782 53.8869V50.957L76.9062 43.2014C77.9977 42.0524 78.8594 41.0758 79.4339 40.2715C80.0084 39.4672 80.2957 38.6055 80.2957 37.6863C80.2957 36.5948 79.951 35.733 79.2041 35.1585C78.5147 34.5266 77.5955 34.2393 76.504 34.2393C75.4125 34.2393 74.4933 34.5266 73.8039 35.216C73.1145 35.9054 72.7698 36.8246 72.7698 37.9735H68.8633C68.8633 36.5373 69.208 35.2734 69.8399 34.2393C70.5293 33.1478 71.4485 32.3435 72.5975 31.769C73.7465 31.1945 75.0678 30.8499 76.5615 30.8499C78.1126 30.8499 79.4339 31.1371 80.5829 31.7116C81.7319 32.2861 82.6511 33.0904 83.283 34.067C83.9149 35.0436 84.2596 36.1926 84.2596 37.4565C84.2596 38.3182 84.0873 39.1225 83.7426 39.9843C83.3979 40.7885 82.8234 41.7077 82.0191 42.6844C81.2148 43.7184 80.0659 44.9249 78.6296 46.3037L74.6656 50.3251V50.44H84.6043V53.8869H68.9782Z" fill="black"/>
<path d="M96.3236 30.8499C97.4152 30.9073 98.4492 31.0796 99.4833 31.4243C100.517 31.8265 101.437 32.401 102.298 33.2627C103.103 34.1245 103.792 35.216 104.252 36.6522C104.769 38.031 104.998 39.7545 104.998 41.8226C104.998 44.4653 104.654 46.6484 103.907 48.5442C103.16 50.3825 102.126 51.7613 100.805 52.738C99.4833 53.7146 97.8747 54.2316 96.0938 54.2316C94.6576 54.2316 93.3937 53.9444 92.2447 53.3699C91.1532 52.7954 90.2915 52.0486 89.6021 51.0719C88.9127 50.0953 88.5105 48.9463 88.3382 47.7399H92.3596C92.5894 48.6016 92.9916 49.3485 93.6235 49.8655C94.2555 50.3825 95.1172 50.6698 96.0938 50.6698C97.6449 50.6698 98.8514 49.9804 99.7131 48.6016C100.575 47.2228 100.977 45.327 100.977 42.9142H100.862C100.288 43.8908 99.5408 44.6376 98.5067 45.2121C97.4726 45.7866 96.3811 46.0164 95.1746 46.0164C93.8533 46.0164 92.6469 45.7292 91.5553 45.0972C90.5213 44.4653 89.6595 43.5461 89.0276 42.4546C88.4531 41.363 88.1084 40.0992 88.1084 38.6629C88.1084 37.1693 88.4531 35.8479 89.1425 34.6989C89.8319 33.4925 90.7511 32.5733 92.0149 31.8839C93.2214 31.1945 94.6576 30.8499 96.3236 30.8499ZM96.3236 34.1819C95.5193 34.1819 94.8299 34.4117 94.198 34.8138C93.5086 35.1585 93.049 35.6756 92.6469 36.365C92.3022 36.9969 92.1298 37.7437 92.1298 38.548C92.1298 39.3523 92.3022 40.0992 92.6469 40.7885C92.9916 41.4205 93.5086 41.9375 94.1406 42.3397C94.7725 42.7418 95.4619 42.9142 96.2662 42.9142C97.0705 42.9142 97.8173 42.6844 98.4492 42.2822C99.0812 41.8801 99.5982 41.363 100 40.7311C100.345 40.0417 100.517 39.3523 100.517 38.548C100.517 37.7437 100.345 37.0544 100 36.365C99.5982 35.733 99.1386 35.216 98.5067 34.8138C97.8747 34.4117 97.1279 34.1819 96.3236 34.1819Z" fill="black"/>
<path d="M116.718 54.2316C115.11 54.2316 113.616 53.9444 112.352 53.3699C111.088 52.8529 110.054 52.0486 109.365 51.1294C108.618 50.1527 108.273 49.0612 108.273 47.7973C108.273 46.8781 108.503 46.0164 108.905 45.2121C109.308 44.4078 109.882 43.7184 110.629 43.2014C111.318 42.6269 112.123 42.2822 113.042 42.1673V41.995C111.893 41.7652 110.916 41.1332 110.227 40.2141C109.48 39.2949 109.135 38.2033 109.135 36.9395C109.135 35.7905 109.48 34.7564 110.112 33.8372C110.744 32.918 111.663 32.1712 112.812 31.6541C113.961 31.1371 115.282 30.8499 116.718 30.8499C118.212 30.8499 119.476 31.1371 120.625 31.6541C121.774 32.1712 122.693 32.918 123.325 33.8372C124.014 34.7564 124.359 35.7905 124.359 36.9395C124.359 38.2033 123.957 39.2949 123.268 40.2141C122.521 41.1332 121.602 41.7652 120.453 41.995V42.1673C121.314 42.2822 122.119 42.6269 122.808 43.2014C123.555 43.7184 124.129 44.4078 124.532 45.2121C124.991 46.0164 125.163 46.8781 125.163 47.7973C125.163 49.0612 124.819 50.1527 124.072 51.1294C123.383 52.0486 122.348 52.8529 121.085 53.3699C119.821 53.9444 118.384 54.2316 116.718 54.2316ZM116.718 51.0145C118.04 51.0145 119.016 50.7272 119.821 50.0953C120.568 49.4059 120.97 48.6016 120.97 47.5101C120.97 46.4186 120.568 45.5568 119.763 44.8674C118.959 44.178 117.982 43.8333 116.718 43.8333C115.512 43.8333 114.478 44.178 113.731 44.8674C112.927 45.5568 112.525 46.4186 112.525 47.5101C112.525 48.6016 112.927 49.4059 113.674 50.0953C114.42 50.7272 115.455 51.0145 116.718 51.0145ZM116.718 40.6736C117.753 40.6736 118.614 40.3864 119.304 39.7545C119.993 39.1225 120.338 38.3182 120.338 37.3416C120.338 36.365 119.993 35.5607 119.304 34.9862C118.672 34.4117 117.81 34.067 116.718 34.067C115.684 34.067 114.823 34.4117 114.133 34.9862C113.444 35.5607 113.157 36.365 113.157 37.3416C113.157 38.3182 113.501 39.1225 114.133 39.7545C114.823 40.3864 115.684 40.6736 116.718 40.6736Z" fill="black"/>
<path d="M136.825 53.8872V31.1948H140.962V41.6506H141.191L150.096 31.1948H155.094L146.304 41.3633L155.209 53.8872H150.211L143.432 44.1783L140.962 47.1082V53.8872H136.825Z" fill="black"/>
<path d="M157.966 53.8872V31.1948H166.641C169.111 31.1948 170.949 31.7693 172.213 32.8608C173.42 33.9524 174.052 35.3886 174.052 37.0546C174.052 38.4334 173.649 39.5249 172.903 40.3292C172.098 41.1335 171.179 41.6506 170.088 41.9378V42.1102C170.892 42.1676 171.639 42.3974 172.386 42.857C173.132 43.3166 173.707 43.9485 174.224 44.7528C174.684 45.5571 174.913 46.5912 174.913 47.7402C174.913 48.8891 174.626 49.9232 174.052 50.8999C173.477 51.819 172.615 52.5659 171.466 53.0829C170.317 53.6574 168.881 53.8872 167.158 53.8872H157.966ZM162.102 50.4403H166.526C168.019 50.4403 169.053 50.153 169.743 49.5785C170.375 49.004 170.72 48.3147 170.72 47.3955C170.72 46.3614 170.375 45.4996 169.628 44.8677C168.881 44.1783 167.905 43.8336 166.641 43.8336H162.102V50.4403ZM162.102 40.8463H166.181C167.215 40.8463 168.134 40.559 168.824 39.9845C169.571 39.41 169.915 38.6058 169.915 37.6291C169.915 36.7099 169.628 36.0205 168.996 35.4461C168.364 34.8716 167.445 34.5843 166.238 34.5843H162.102V40.8463Z" fill="black"/>
<g filter="url(#filter0_d_20_92)">
<path d="M799.562 68.2495H741.628C741.386 68.2495 741.189 68.4457 741.189 68.6878C741.189 68.9299 741.386 69.1261 741.628 69.1261H799.562C799.804 69.1261 800 68.9299 800 68.6878C800 68.4457 799.804 68.2495 799.562 68.2495Z" fill="white"/>
</g>
<g filter="url(#filter1_d_20_92)">
<path d="M519.811 64.6304H465.499C464.257 64.6304 463.25 65.6375 463.25 66.8798C463.25 68.1222 464.257 69.1293 465.499 69.1293H519.811C521.054 69.1293 522.061 68.1222 522.061 66.8798C522.061 65.6375 521.054 64.6304 519.811 64.6304Z" fill="white"/>
</g>
<g filter="url(#filter2_di_20_92)">
<path d="M241.198 0H188.37C186.713 0 185.37 1.34314 185.37 3V66.1113C185.37 67.7681 186.713 69.1113 188.37 69.1113H241.198C242.855 69.1113 244.198 67.7681 244.198 66.1113V3C244.198 1.34315 242.855 0 241.198 0Z" fill="white"/>
</g>
<defs>
<filter id="filter0_d_20_92" x="741.189" y="68.2495" width="70.8105" height="12.8767" filterUnits="userSpaceOnUse" color-interpolation-filters="sRGB">
<feFlood flood-opacity="0" result="BackgroundImageFix"/>
<feColorMatrix in="SourceAlpha" type="matrix" values="0 0 0 0 0 0 0 0 0 0 0 0 0 0 0 0 0 0 127 0" result="hardAlpha"/>
<feOffset dx="6" dy="6"/>
<feGaussianBlur stdDeviation="3"/>
<feComposite in2="hardAlpha" operator="out"/>
<feColorMatrix type="matrix" values="0 0 0 0 0 0 0 0 0 0 0 0 0 0 0 0 0 0 0.5 0"/>
<feBlend mode="normal" in2="BackgroundImageFix" result="effect1_dropShadow_20_92"/>
<feBlend mode="normal" in="SourceGraphic" in2="effect1_dropShadow_20_92" result="shape"/>
</filter>
<filter id="filter1_d_20_92" x="463.25" y="64.6304" width="70.8105" height="16.499" filterUnits="userSpaceOnUse" color-interpolation-filters="sRGB">
<feFlood flood-opacity="0" result="BackgroundImageFix"/>
<feColorMatrix in="SourceAlpha" type="matrix" values="0 0 0 0 0 0 0 0 0 0 0 0 0 0 0 0 0 0 127 0" result="hardAlpha"/>
<feOffset dx="6" dy="6"/>
<feGaussianBlur stdDeviation="3"/>
<feComposite in2="hardAlpha" operator="out"/>
<feColorMatrix type="matrix" values="0 0 0 0 0 0 0 0 0 0 0 0 0 0 0 0 0 0 0.5 0"/>
<feBlend mode="normal" in2="BackgroundImageFix" result="effect1_dropShadow_20_92"/>
<feBlend mode="normal" in="SourceGraphic" in2="effect1_dropShadow_20_92" result="shape"/>
</filter>
<filter id="filter2_di_20_92" x="181.37" y="0" width="66.8281" height="77.1113" filterUnits="userSpaceOnUse" color-interpolation-filters="sRGB">
<feFlood flood-opacity="0" result="BackgroundImageFix"/>
<feColorMatrix in="SourceAlpha" type="matrix" values="0 0 0 0 0 0 0 0 0 0 0 0 0 0 0 0 0 0 127 0" result="hardAlpha"/>
<feOffset dy="4"/>
<feGaussianBlur stdDeviation="2"/>
<feComposite in2="hardAlpha" operator="out"/>
<feColorMatrix type="matrix" values="0 0 0 0 0 0 0 0 0 0 0 0 0 0 0 0 0 0 0.25 0"/>
<feBlend mode="normal" in2="BackgroundImageFix" result="effect1_dropShadow_20_92"/>
<feBlend mode="normal" in="SourceGraphic" in2="effect1_dropShadow_20_92" result="shape"/>
<feColorMatrix in="SourceAlpha" type="matrix" values="0 0 0 0 0 0 0 0 0 0 0 0 0 0 0 0 0 0 127 0" result="hardAlpha"/>
<feOffset dx="-3" dy="5"/>
<feGaussianBlur stdDeviation="15.5"/>
<feComposite in2="hardAlpha" operator="arithmetic" k2="-1" k3="1"/>
<feColorMatrix type="matrix" values="0 0 0 0 0 0 0 0 0 0 0 0 0 0 0 0 0 0 0.25 0"/>
<feBlend mode="normal" in2="shape" result="effect2_innerShadow_20_92"/>
</filter>
</defs>
</svg>
