<?xml version="1.0" encoding="iso-8859-1"?>
<!-- Generator: Adobe Illustrator 19.1.0, SVG Export Plug-In . SVG Version: 6.00 Build 0)  -->
<svg version="1.1" id="Capa_1" xmlns="http://www.w3.org/2000/svg" xmlns:xlink="http://www.w3.org/1999/xlink" x="0px" y="0px"
	 viewBox="0 0 64.5 64.5" style="enable-background:new 0 0 64.5 64.5;" xml:space="preserve">
<g>
	<g id="group-30svg">
		<path id="path-1_23_" style="fill:#53ECF4;" d="M52.805,28.047L29.868,50.996c-0.768,0.768-2.013,0.768-2.78,0l-8.341-8.345
			c-0.767-0.769-0.767-2.014,0-2.782L41.684,16.92c0.768-0.768,2.013-0.768,2.78,0l8.341,8.345
			C53.572,26.033,53.572,27.279,52.805,28.047z"/>
		<path id="path-2_23_" style="fill:#EDC951;" d="M52.805,5.793c0.767-0.768,2.012-0.768,2.779,0l8.341,8.345
			c0.767,0.768,0.767,2.014,0,2.782l-2.78,2.782c-0.768,0.768-2.013,0.768-2.78,0l-8.341-8.345c-0.767-0.769-0.767-2.014,0-2.782
			L52.805,5.793z"/>
		<path id="path-3_23_" style="fill:#EDC951;" d="M56.975,18.311l-5.561,5.563l-5.56-5.563l5.56-5.563L56.975,18.311z"/>
		<path id="path-4_21_" d="M25.478,50.071c-0.926,0-1.796-0.361-2.451-1.016l-8.34-8.345c-0.655-0.654-1.015-1.525-1.015-2.451
			c0-0.928,0.36-1.798,1.015-2.453l22.935-22.949c0.655-0.655,1.526-1.015,2.451-1.015l0,0c0.926,0,1.796,0.36,2.451,1.015
			l8.34,8.345c0.655,0.655,1.015,1.525,1.015,2.452s-0.36,1.797-1.015,2.452L27.929,49.055
			C27.274,49.71,26.403,50.071,25.478,50.071z M40.074,14.844c-0.088,0-0.217,0.023-0.329,0.135L16.809,37.928
			c-0.119,0.12-0.136,0.258-0.136,0.331c0,0.071,0.017,0.21,0.136,0.329l8.34,8.345c0.226,0.224,0.433,0.225,0.659,0l22.936-22.949
			c0.119-0.119,0.136-0.258,0.136-0.33s-0.017-0.211-0.136-0.33l-8.34-8.345C40.291,14.867,40.163,14.844,40.074,14.844z"/>
		<path id="path-5_17_" d="M56.755,18.778c-0.926,0-1.797-0.362-2.451-1.017l-8.34-8.345c-1.351-1.352-1.351-3.552,0-4.904
			l2.78-2.781c1.309-1.311,3.593-1.309,4.901,0l8.34,8.344c1.352,1.353,1.352,3.552,0,4.904l-2.779,2.782
			C58.551,18.417,57.68,18.778,56.755,18.778z M51.194,3.716c-0.088,0-0.216,0.025-0.329,0.137l-2.78,2.782
			c-0.181,0.182-0.181,0.477,0,0.658l8.34,8.346c0.205,0.204,0.395,0.263,0.659,0l2.78-2.782c0.182-0.182,0.182-0.478,0-0.659
			l-8.34-8.345C51.41,3.741,51.283,3.716,51.194,3.716z"/>
		<path id="path-6_16_" d="M48.414,22.373c-0.397,0-0.779-0.158-1.06-0.439l-5.56-5.564c-0.281-0.281-0.44-0.664-0.44-1.061
			c0-0.398,0.159-0.78,0.44-1.061l5.56-5.563c0.586-0.586,1.535-0.586,2.121,0l5.56,5.563c0.281,0.281,0.44,0.663,0.44,1.061
			c0,0.397-0.159,0.78-0.44,1.061l-5.56,5.564C49.194,22.215,48.812,22.373,48.414,22.373z M44.976,15.309l3.438,3.441l3.439-3.441
			l-3.439-3.441L44.976,15.309z"/>
		<path id="path-7_14_" d="M18.528,50.071c-0.926,0-1.797-0.361-2.451-1.016l-1.39-1.391c-1.352-1.352-1.352-3.551,0-4.904
			l2.085-2.086c0.586-0.586,1.535-0.586,2.121,0l4.17,4.172c0.282,0.282,0.44,0.664,0.44,1.062c0,0.397-0.158,0.779-0.44,1.061
			l-2.085,2.086C20.324,49.71,19.453,50.071,18.528,50.071z M17.832,43.858l-1.024,1.025c-0.119,0.119-0.136,0.258-0.136,0.33
			c0,0.071,0.017,0.21,0.136,0.329l1.39,1.391c0.204,0.203,0.395,0.263,0.659,0l1.024-1.025L17.832,43.858z"/>
		<path id="path-8_11_" d="M1.499,63.751c-0.383,0-0.767-0.147-1.06-0.44c-0.586-0.586-0.586-1.536,0-2.122l14.596-14.604
			c0.585-0.587,1.535-0.587,2.121,0c0.586,0.586,0.586,1.536,0,2.122L2.561,63.311C2.268,63.604,1.883,63.751,1.499,63.751z"/>
	</g>
</g>
<g>
</g>
<g>
</g>
<g>
</g>
<g>
</g>
<g>
</g>
<g>
</g>
<g>
</g>
<g>
</g>
<g>
</g>
<g>
</g>
<g>
</g>
<g>
</g>
<g>
</g>
<g>
</g>
<g>
</g>
</svg>
