<?xml version="1.0" encoding="iso-8859-1"?>
<!-- Generator: Adobe Illustrator 19.1.0, SVG Export Plug-In . SVG Version: 6.00 Build 0)  -->
<svg version="1.1" id="Capa_1" xmlns="http://www.w3.org/2000/svg" xmlns:xlink="http://www.w3.org/1999/xlink" x="0px" y="0px"
	 viewBox="0 0 64 64" style="enable-background:new 0 0 64 64;" xml:space="preserve">
<g>
	<g id="group-6svg">
		<path id="path-1_26_" style="fill:#E56A77;" d="M59,60c0,2.209-1.791,4-4,4H14c-2.209,0-4-1.791-4-4V8c0-2.209,1.791-4,4-4h41
			c2.209,0,4,1.791,4,4V60z"/>
		<path id="path-2_26_" style="fill:#53ECF4;" d="M47.52,42.968c0,7.106-5.76,12.866-12.866,12.866s-12.867-5.76-12.867-12.866
			s5.761-12.866,12.867-12.866S47.52,35.862,47.52,42.968z"/>
		<path id="path-3_26_" style="fill:#EDC951;" d="M59,20H10V7.981C10,5.771,12.716,4,14.926,4h40.62C57.755,4,59,5.771,59,7.981V20z
			"/>
		<path id="path-4_26_" d="M51.5,63h-41C7.468,63,5,60.533,5,57.5v-52C5,2.467,7.468,0,10.5,0h41C54.532,0,57,2.467,57,5.5v52
			C57,60.533,54.532,63,51.5,63z M10.5,3C9.121,3,8,4.122,8,5.5v52c0,1.378,1.121,2.5,2.5,2.5h41c1.379,0,2.5-1.122,2.5-2.5v-52
			C54,4.122,52.879,3,51.5,3H10.5z"/>
		<path id="path-5_26_" d="M55.5,19h-49C5.672,19,5,18.329,5,17.5V5.981C5,2.907,7.88,0,10.926,0h40.62C54.76,0,57,3.152,57,5.981
			V17.5C57,18.329,56.328,19,55.5,19z M8,16h46V5.981C54,4.631,52.905,3,51.546,3h-40.62C9.559,3,8,4.588,8,5.981V16z"/>
		<path id="path-6_24_" d="M22.5,18.5c-0.828,0-1.5-0.671-1.5-1.5V2c0-0.829,0.672-1.5,1.5-1.5S24,1.171,24,2v15
			C24,17.829,23.328,18.5,22.5,18.5z"/>
		<path id="path-7_24_" d="M50.632,9.739c0,1.429-1.157,2.587-2.586,2.587c-1.429,0-2.586-1.158-2.586-2.587
			c0-1.428,1.157-2.586,2.586-2.586C49.475,7.153,50.632,8.311,50.632,9.739z"/>
		<path id="path-8_24_" d="M43.391,9.739c0,1.429-1.158,2.587-2.586,2.587c-1.429,0-2.586-1.158-2.586-2.587
			c0-1.428,1.157-2.586,2.586-2.586C42.233,7.153,43.391,8.311,43.391,9.739z"/>
		<path id="path-9_19_" d="M36.149,9.739c0,1.429-1.158,2.587-2.586,2.587s-2.585-1.158-2.585-2.587
			c0-1.428,1.157-2.586,2.585-2.586S36.149,8.311,36.149,9.739z"/>
		<path id="path-10_19_" d="M30.653,55.334c-7.922,0-14.366-6.444-14.366-14.366s6.444-14.366,14.366-14.366
			S45.02,33.046,45.02,40.968S38.575,55.334,30.653,55.334z M30.653,29.602c-6.267,0-11.366,5.098-11.366,11.366
			c0,6.267,5.099,11.366,11.366,11.366c6.268,0,11.368-5.099,11.368-11.366C42.021,34.7,36.921,29.602,30.653,29.602z"/>
		<path id="path-11_15_" d="M25.179,45.712c-3.508,0-6.553-2.046-8.095-3.684c-0.568-0.603-0.54-1.552,0.063-2.12
			c0.601-0.568,1.548-0.541,2.118,0.06l0,0c0.208,0.217,5.138,5.272,10.189,1.041c5.715-4.781,11.718-2.073,14.094,0.027
			c0.621,0.548,0.68,1.496,0.131,2.117c-0.55,0.62-1.497,0.679-2.118,0.131c-0.198-0.173-5.042-4.277-10.181,0.026
			C29.29,45.059,27.161,45.712,25.179,45.712z"/>
		<path id="path-12_14_" d="M38.735,43.877c0,0.572-0.463,1.035-1.034,1.035s-1.034-0.463-1.034-1.035
			c0-0.571,0.463-1.034,1.034-1.034S38.735,43.306,38.735,43.877z"/>
		<path id="path-13_9_" d="M37.701,48.015c0,0.571-0.463,1.035-1.034,1.035s-1.035-0.464-1.035-1.035s0.464-1.034,1.035-1.034
			S37.701,47.444,37.701,48.015z"/>
		<path id="path-14_6_" d="M33.563,44.912c0,0.571-0.463,1.034-1.034,1.034c-0.572,0-1.035-0.463-1.035-1.034
			c0-0.572,0.463-1.035,1.035-1.035C33.1,43.877,33.563,44.34,33.563,44.912z"/>
		<path id="path-15_5_" d="M31.494,49.05c0,0.571-0.463,1.034-1.034,1.034c-0.571,0-1.034-0.463-1.034-1.034
			c0-0.572,0.463-1.035,1.034-1.035C31.031,48.015,31.494,48.478,31.494,49.05z"/>
		<path id="path-16_3_" d="M25.287,46.981c0,0.571-0.463,1.034-1.034,1.034c-0.571,0-1.034-0.463-1.034-1.034
			s0.463-1.035,1.034-1.035C24.824,45.946,25.287,46.41,25.287,46.981z"/>
	</g>
</g>
<g>
</g>
<g>
</g>
<g>
</g>
<g>
</g>
<g>
</g>
<g>
</g>
<g>
</g>
<g>
</g>
<g>
</g>
<g>
</g>
<g>
</g>
<g>
</g>
<g>
</g>
<g>
</g>
<g>
</g>
</svg>
