<?xml version="1.0" encoding="iso-8859-1"?>
<!-- Generator: Adobe Illustrator 19.1.0, SVG Export Plug-In . SVG Version: 6.00 Build 0)  -->
<svg version="1.1" id="Capa_1" xmlns="http://www.w3.org/2000/svg" xmlns:xlink="http://www.w3.org/1999/xlink" x="0px" y="0px"
	 viewBox="0 0 63.537 63.537" style="enable-background:new 0 0 63.537 63.537;" xml:space="preserve">
<g>
	<g id="group-7svg">
		<path id="path-1_27_" style="fill:#EDC951;" d="M58.53,20.81c2.693,4.143,1.519,9.685-2.622,12.379l0,0
			c-4.14,2.694-9.679,1.52-12.372-2.623l-8.603-13.237c-2.692-4.143-1.519-9.685,2.622-12.379l0,0
			c4.14-2.694,9.679-1.52,12.372,2.623L58.53,20.81z"/>
		<path id="path-2_27_" style="fill:#E56A77;" d="M23.873,53.345c-4.14,2.694-9.679,1.52-12.372-2.623l0,0
			c-2.692-4.143-1.518-9.685,2.622-12.379l13.23-8.608c4.14-2.694,9.679-1.52,12.372,2.623l0,0
			c2.692,4.143,1.519,9.685-2.622,12.379L23.873,53.345z"/>
		<path id="path-3_27_" style="fill:#81BDA4;" d="M53.302,59.025c-0.651,3.074-3.67,5.038-6.743,4.387l0,0
			c-3.072-0.651-5.035-3.672-4.384-6.746l2.08-9.824c0.652-3.075,3.67-5.039,6.743-4.388l0,0c3.073,0.652,5.036,3.672,4.385,6.747
			L53.302,59.025z"/>
		<path id="path-4_25_" d="M46.041,34.136c-3.552,0-6.827-1.776-8.762-4.753l-8.603-13.238c-3.139-4.829-1.766-11.313,3.061-14.456
			C33.436,0.584,35.402,0,37.421,0c3.553,0,6.829,1.776,8.763,4.754l8.603,13.237c3.14,4.83,1.766,11.315-3.061,14.456
			C50.026,33.552,48.061,34.136,46.041,34.136z M37.421,3.002c-1.437,0-2.837,0.416-4.048,1.205
			c-3.441,2.238-4.419,6.86-2.183,10.302l8.604,13.239c1.379,2.12,3.714,3.386,6.247,3.386c1.438,0,2.838-0.416,4.049-1.205
			c3.441-2.238,4.42-6.86,2.183-10.302L43.669,6.389C42.29,4.268,39.954,3.002,37.421,3.002z"/>
		<path id="path-5_21_" d="M34.847,22.681c-0.5,0-0.99-0.25-1.274-0.706c-0.438-0.704-0.224-1.629,0.479-2.068l13.942-8.703
			c0.704-0.44,1.629-0.224,2.066,0.479c0.438,0.703,0.225,1.628-0.479,2.067L35.64,22.453
			C35.393,22.608,35.118,22.681,34.847,22.681z"/>
		<path id="path-6_20_" d="M14.007,54.292c-3.553,0-6.829-1.776-8.763-4.754c-3.139-4.829-1.766-11.314,3.061-14.455l13.23-8.609
			c1.699-1.105,3.665-1.689,5.684-1.689c3.553,0,6.829,1.776,8.763,4.754c3.14,4.83,1.766,11.315-3.061,14.455l-13.23,8.609
			C17.992,53.708,16.026,54.292,14.007,54.292z M27.219,27.787c-1.437,0-2.837,0.416-4.048,1.204L9.941,37.6
			C6.5,39.839,5.522,44.46,7.759,47.903c1.379,2.121,3.715,3.387,6.248,3.387c1.437,0,2.837-0.416,4.049-1.204l13.229-8.609
			c3.441-2.238,4.42-6.86,2.183-10.303C32.088,29.053,29.753,27.787,27.219,27.787z"/>
		<path id="path-7_18_" d="M25.203,48.099c-0.5,0-0.99-0.25-1.274-0.706l-8.698-13.95c-0.439-0.703-0.225-1.629,0.478-2.067
			c0.705-0.44,1.629-0.224,2.067,0.478l8.698,13.95c0.439,0.703,0.225,1.629-0.478,2.068C25.748,48.026,25.474,48.099,25.203,48.099
			z"/>
		<path id="path-8_14_" d="M42.745,63.037c-0.5,0-1.004-0.053-1.497-0.158c-1.877-0.397-3.488-1.504-4.535-3.115
			c-1.046-1.61-1.403-3.531-1.006-5.41l2.081-9.824c0.7-3.305,3.655-5.702,7.026-5.702c0.5,0,1.002,0.053,1.495,0.157
			c3.876,0.822,6.362,4.647,5.541,8.526l-2.081,9.823C49.07,60.639,46.115,63.037,42.745,63.037z M44.814,41.83
			c-1.963,0-3.683,1.396-4.091,3.322l-2.081,9.823c-0.231,1.096-0.023,2.214,0.586,3.153c0.61,0.938,1.548,1.582,2.642,1.814
			c2.238,0.478,4.497-1.018,4.965-3.229l2.08-9.824c0.478-2.26-0.97-4.488-3.228-4.967C45.399,41.86,45.105,41.83,44.814,41.83z"/>
		<path id="path-9_12_" d="M49.017,53.544c-0.114,0-0.229-0.013-0.344-0.039l-10.075-2.36c-0.807-0.19-1.308-0.997-1.119-1.804
			s0.997-1.305,1.803-1.12l10.075,2.36c0.807,0.19,1.307,0.997,1.119,1.804C50.314,53.077,49.697,53.544,49.017,53.544z"/>
	</g>
</g>
<g>
</g>
<g>
</g>
<g>
</g>
<g>
</g>
<g>
</g>
<g>
</g>
<g>
</g>
<g>
</g>
<g>
</g>
<g>
</g>
<g>
</g>
<g>
</g>
<g>
</g>
<g>
</g>
<g>
</g>
</svg>
